<svg id="레이어_2" data-name="레이어 2" xmlns="http://www.w3.org/2000/svg" viewBox="0 0 185.03 176.61"><defs><style>.cls-1{fill:#f5ce58;}</style></defs><path class="cls-1" d="M267.26,148.31,290.79,196a6.55,6.55,0,0,0,4.91,3.57l52.62,7.64a6.53,6.53,0,0,1,3.62,11.14l-38.08,37.11a6.5,6.5,0,0,0-1.87,5.78l9,52.4a6.53,6.53,0,0,1-9.47,6.89l-47.06-24.75a6.54,6.54,0,0,0-6.08,0L211.3,320.52a6.53,6.53,0,0,1-9.47-6.89l9-52.4a6.54,6.54,0,0,0-1.88-5.78l-38.07-37.11a6.53,6.53,0,0,1,3.61-11.14l52.62-7.64A6.56,6.56,0,0,0,232,196l23.53-47.68A6.52,6.52,0,0,1,267.26,148.31Z" transform="translate(-168.89 -144.67)"/></svg>